<?xml version="1.0" encoding="utf-8"?>
<!-- Generator: Adobe Illustrator 16.0.0, SVG Export Plug-In . SVG Version: 6.00 Build 0)  -->
<!DOCTYPE svg PUBLIC "-//W3C//DTD SVG 1.1//EN" "http://www.w3.org/Graphics/SVG/1.1/DTD/svg11.dtd">
<svg version="1.1"
	 id="Layer_1" xmlns:inkscape="http://www.inkscape.org/namespaces/inkscape" xmlns:sodipodi="http://sodipodi.sourceforge.net/DTD/sodipodi-0.dtd" xmlns:svg="http://www.w3.org/2000/svg" xmlns:rdf="http://www.w3.org/1999/02/22-rdf-syntax-ns#" xmlns:cc="http://creativecommons.org/ns#" xmlns:dc="http://purl.org/dc/elements/1.1/"
	 xmlns="http://www.w3.org/2000/svg" xmlns:xlink="http://www.w3.org/1999/xlink" x="0px" y="0px" width="444px" height="444px"
	 viewBox="0 0 444 444" enable-background="new 0 0 444 444" xml:space="preserve">
<g transform="translate(0,-952.36218)">
	<path d="M222,963.163c116.493,0,211.2,94.658,211.2,211.2c0,116.495-94.704,211.198-211.2,211.198
		c-116.542,0-211.2-94.705-211.2-211.198C10.8,1057.824,105.461,963.163,222,963.163L222,963.163z M222,982.362
		c-106.166,0-192.003,85.835-192.003,192.001c0,106.114,85.839,192.003,192.003,192.003c106.113,0,192.002-85.891,192.002-192.003
		C414.002,1068.199,328.115,982.361,222,982.362L222,982.362z"/>
	<path d="M237.23,1068.3c5.302,0.003,9.598,4.303,9.595,9.605c-0.001,2.591-1.05,5.071-2.908,6.878l-89.579,89.58l89.579,89.579
		c3.786,3.713,3.846,9.791,0.133,13.576c-3.712,3.783-9.79,3.846-13.575,0.133c-0.045-0.043-0.09-0.088-0.133-0.133l-96.368-96.369
		c-3.749-3.75-3.749-9.826,0-13.575l96.368-96.368C232.15,1069.348,234.636,1068.299,237.23,1068.3L237.23,1068.3z"/>
</g>
</svg>
