<?xml version="1.0" encoding="utf-8"?>
<!-- Generator: Adobe Illustrator 16.0.0, SVG Export Plug-In . SVG Version: 6.00 Build 0)  -->
<!DOCTYPE svg PUBLIC "-//W3C//DTD SVG 1.1//EN" "http://www.w3.org/Graphics/SVG/1.1/DTD/svg11.dtd">
<svg version="1.1"
	 id="Layer_1" xmlns:inkscape="http://www.inkscape.org/namespaces/inkscape" xmlns:sodipodi="http://sodipodi.sourceforge.net/DTD/sodipodi-0.dtd" xmlns:svg="http://www.w3.org/2000/svg" xmlns:rdf="http://www.w3.org/1999/02/22-rdf-syntax-ns#" xmlns:cc="http://creativecommons.org/ns#" xmlns:dc="http://purl.org/dc/elements/1.1/"
	 xmlns="http://www.w3.org/2000/svg" xmlns:xlink="http://www.w3.org/1999/xlink" x="0px" y="0px" width="1600px" height="600px"
	 viewBox="0 0 1600 600" enable-background="new 0 0 1600 600" xml:space="preserve">
<g transform="translate(0,-1020.3622)">
	<path fill="#FCFCFC" d="M1019.814,1119.021c-0.205-0.009-0.41-0.009-0.615,0c0,0-111.569,6.857-223.887,14.15
		c-56.159,3.646-112.524,7.399-155.215,10.457c-21.346,1.531-39.268,2.871-52.09,3.955c-6.411,0.54-11.534,1.035-15.234,1.439
		c-1.851,0.194-3.312,0.375-4.512,0.555c-0.6,0.15-1.138,0.18-1.699,0.301c-0.562,0.149-0.695-0.194-2.812,1.049
		c-2.347,1.383-3.76,3.928-3.691,6.65l5.801,236.777c0.094,4.142,3.527,7.423,7.668,7.33c0.052-0.002,0.103-0.004,0.154-0.006
		l459.082-19.453c4.139-0.172,7.354-3.668,7.182-7.808c-0.002-0.024-0.003-0.05-0.004-0.073l-12.803-248.232
		c-0.199-3.926-3.395-7.031-7.324-7.119V1119.021z M1012.549,1134.49l12.041,233.086l-443.906,18.809l-5.449-222.51
		c3.446-0.36,8.047-0.78,14.033-1.291c12.697-1.08,30.602-2.428,51.914-3.955c42.625-3.054,98.956-6.813,155.098-10.459
		c108.479-7.044,209.086-13.238,216.27-13.682V1134.49z"/>
	<path fill="#FCFCFC" d="M797.275,1133.787c-4.137,0.22-7.312,3.752-7.091,7.89c0,0.006,0.001,0.013,0.001,0.021l9.287,239.062
		c0.146,4.142,3.624,7.383,7.767,7.236c4.143-0.148,7.382-3.625,7.235-7.768c0-0.018-0.001-0.034-0.002-0.053l-9.316-239.062
		c-0.092-4.142-3.524-7.425-7.666-7.332c-0.071,0.002-0.144,0.004-0.215,0.008V1133.787z"/>
	<path fill="#FCFCFC" d="M1020.382,1153.328c-0.165-0.006-0.331-0.006-0.496,0l-447.461,29.268
		c-4.128,0.011-7.466,3.378-7.455,7.521c0.011,4.142,3.366,7.492,7.493,7.481c0.31-0.002,0.618-0.022,0.925-0.061l447.462-29.238
		c4.127-0.132,7.366-3.598,7.234-7.74c-0.132-4.138-3.578-7.386-7.702-7.26V1153.328z"/>
	<path fill="#FCFCFC" d="M1027.845,1326.062c-0.136-0.004-0.272-0.004-0.408,0l-453.669,24.023c-4.124,0.067-7.413,3.48-7.345,7.623
		c0.067,4.142,3.466,7.444,7.591,7.377c0.181-0.004,0.361-0.013,0.542-0.029l453.289-23.996c4.125,0.059,7.516-3.252,7.574-7.394
		c0.058-4.142-3.238-7.548-7.363-7.606c-0.07-0.002-0.141-0.002-0.211,0V1326.062z"/>
	<path fill="#FCFCFC" d="M691.895,1174.978c-4.143,0.013-7.49,3.382-7.478,7.523c0.001,0.238,0.013,0.475,0.036,0.711
		l13.945,164.705c0.221,4.137,3.754,7.312,7.891,7.09s7.311-3.754,7.09-7.89c-0.009-0.154-0.021-0.308-0.039-0.46l-13.945-164.705
		c-0.277-3.936-3.556-6.982-7.5-6.973V1174.978z"/>
	<path fill="#FCFCFC" d="M898.555,1164.666c-4.141,0.128-7.394,3.587-7.267,7.729c0.008,0.246,0.027,0.493,0.06,0.738
		l18.574,163.564c0.462,4.118,4.174,7.082,8.292,6.621c4.118-0.463,7.082-4.175,6.62-8.293l-18.604-163.594
		c-0.384-3.922-3.736-6.877-7.676-6.768V1164.666z"/>
	<path fill="#FCFCFC" d="M905.732,1243.709c-0.176-0.006-0.352-0.006-0.527,0l-204.023,15.527c-4.141,0.123-7.398,3.578-7.276,7.718
		c0.122,4.142,3.577,7.399,7.718,7.276c0.234-0.007,0.469-0.023,0.701-0.053l203.994-15.498c4.126-0.372,7.169-4.018,6.797-8.145
		C912.77,1246.703,909.58,1243.753,905.732,1243.709z"/>
	<path fill="#FCFCFC" d="M593.252,1264.275c-0.434,0.013-0.864,0.062-1.289,0.15l-22.061,3.428
		c-4.128,0.354-7.188,3.984-6.835,8.111s3.984,7.188,8.111,6.835c0.34-0.029,0.677-0.08,1.009-0.155l22.09-3.43
		c4.109-0.521,7.019-4.275,6.497-8.385c-0.479-3.779-3.714-6.599-7.522-6.557V1264.275z"/>
	<path fill="#FCFCFC" d="M1024.971,1233.396c-0.424,0.015-0.845,0.064-1.26,0.15l-23.262,3.457c-4.121,0.421-7.12,4.104-6.698,8.225
		c0.421,4.122,4.104,7.121,8.226,6.698c0.225-0.022,0.448-0.055,0.67-0.099l23.232-3.43c4.108-0.531,7.009-4.29,6.479-8.399
		c-0.48-3.721-3.636-6.515-7.387-6.54V1233.396z"/>
</g>
</svg>
