<?xml version="1.0" encoding="utf-8"?>
<!-- Generator: Adobe Illustrator 16.0.0, SVG Export Plug-In . SVG Version: 6.00 Build 0)  -->
<!DOCTYPE svg PUBLIC "-//W3C//DTD SVG 1.1//EN" "http://www.w3.org/Graphics/SVG/1.1/DTD/svg11.dtd">
<svg version="1.1" id="Layer_1" xmlns="http://www.w3.org/2000/svg" xmlns:xlink="http://www.w3.org/1999/xlink" x="0px" y="0px"
	 width="503.975px" height="485.581px" viewBox="547.603 0 503.975 485.581" enable-background="new 547.603 0 503.975 485.581"
	 xml:space="preserve">
<path fill="#000FF" d="M575.067,376.372c0.061,3.713,0.383,7.351,0.87,10.936c0.074,0.556,0.164,1.096,0.255,1.649
	c0.555,3.54,1.29,7.006,2.241,10.396c0.038,0.129,0.062,0.256,0.099,0.391c2.115,7.373,5.151,14.333,8.963,20.798
	c0.24,0.412,0.495,0.817,0.75,1.229c1.74,2.844,3.615,5.58,5.646,8.205c0.271,0.354,0.525,0.722,0.804,1.073
	c2.278,2.857,4.71,5.58,7.318,8.137c0.397,0.392,0.833,0.743,1.238,1.125c2.175,2.057,4.447,3.99,6.81,5.828
	c0.811,0.63,1.636,1.245,2.469,1.846c2.04,1.47,4.14,2.835,6.3,4.133c0.104,0.066,0.188,0.165,0.3,0.231
	c0.308,0.181,0.615,0.359,0.93,0.54c0.392,0.255,0.78,0.502,1.187,0.734c0.021,0.016,0.045,0.03,0.066,0.046
	c0.016,0.007,0.03,0.007,0.054,0.022c0.082,0.045,0.165,0.073,0.247,0.118c3.338,1.847,6.833,3.437,10.409,4.854
	c0.33,0.128,0.66,0.24,0.99,0.368c2.88,1.103,5.827,2.047,8.835,2.85c0.705,0.188,1.417,0.375,2.13,0.548
	c2.692,0.646,5.438,1.162,8.221,1.561c0.788,0.111,1.566,0.271,2.361,0.359c3.429,0.397,6.9,0.652,10.44,0.652
	c3.593,0,7.117-0.27,10.604-0.683c0.263-0.03,0.532-0.091,0.803-0.12c3.45-0.442,6.833-1.096,10.146-1.912
	c0.099-0.022,0.195-0.03,0.285-0.053c0.053-0.016,0.09-0.046,0.135-0.054c28.988-7.318,52.365-28.68,62.506-56.443
	c0.021-0.067,0.074-0.12,0.098-0.188c0.061-0.173,0.104-0.353,0.165-0.524c0.734-2.07,1.401-4.171,1.987-6.309
	c0.164-0.6,0.314-1.2,0.466-1.8c0.473-1.883,0.914-3.78,1.268-5.708c0.217-1.17,0.367-2.347,0.539-3.524
	c0.203-1.446,0.443-2.873,0.578-4.343c0.263-2.782,0.42-5.558,0.42-8.34c0-2.933-0.157-5.85-0.442-8.76
	c-0.157-1.605-0.442-3.173-0.683-4.748c-0.188-1.229-0.322-2.467-0.562-3.689c-0.412-2.13-0.96-4.208-1.521-6.285
	c-0.173-0.63-0.301-1.274-0.487-1.904c-0.668-2.266-1.455-4.471-2.295-6.652c-0.15-0.383-0.248-0.78-0.397-1.162
	c-0.016-0.045-0.053-0.083-0.074-0.128c-9.017-22.521-26.835-40.582-49.23-49.853c-0.053-0.022-0.09-0.06-0.135-0.075
	c-0.354-0.143-0.729-0.232-1.08-0.368c-2.692-1.072-5.445-2.01-8.258-2.82c-0.614-0.173-1.237-0.315-1.853-0.48
	c-2.753-0.728-5.551-1.328-8.399-1.792c-0.437-0.068-0.87-0.135-1.305-0.203c-3.144-0.465-6.33-0.772-9.562-0.9
	c-0.098-0.008-0.195-0.015-0.301-0.015C667.265,285.127,666.146,285,665,285c-13.282,0-25.867,2.97-37.23,8.16
	c-0.045,0.022-0.09,0.045-0.135,0.06c-2.978,1.365-5.856,2.895-8.646,4.567c-0.202,0.12-0.42,0.21-0.622,0.33
	c-0.067,0.038-0.105,0.113-0.173,0.149C592.348,314.107,575,342.532,575,375c0,0.375,0.053,0.735,0.06,1.11
	c0,0.015-0.007,0.021-0.007,0.036C575.053,376.223,575.067,376.29,575.067,376.372z M632.735,307.395
	c1.702-0.816,3.42-1.573,5.175-2.257c0.24-0.09,0.479-0.173,0.72-0.263c7.396-2.782,15.195-4.343,23.04-4.71
	c0.675-0.03,1.35-0.09,2.025-0.105c1.318-0.028,2.64,0.022,3.96,0.068c1.116,0.037,2.233,0.082,3.337,0.172
	c1.154,0.09,2.303,0.218,3.449,0.36c1.237,0.157,2.461,0.345,3.676,0.562c1.064,0.188,2.13,0.375,3.188,0.615
	c0.338,0.074,0.66,0.18,0.998,0.255L661.895,322.5h-22.26l-7.425-14.85C632.383,307.567,632.562,307.485,632.735,307.395z
	 M723.83,386.527l15.09-23.724c0.135,0.817,0.271,1.637,0.375,2.46c0.128,0.945,0.271,1.884,0.354,2.828
	c0.21,2.279,0.353,4.575,0.353,6.907c0,3.345-0.285,6.683-0.75,10.013c-0.075,0.547-0.165,1.096-0.255,1.644
	c-0.532,3.3-1.237,6.585-2.22,9.84l-24.009,4.8L723.5,387c0.021-0.022,0.021-0.06,0.037-0.082L723.83,386.527z M678.8,448.65
	c-3.075,0.592-6.112,0.906-9.127,1.116c-0.825,0.054-1.658,0.104-2.49,0.127c-2.325,0.075-4.628,0.017-6.915-0.127
	c-0.832-0.053-1.68-0.045-2.513-0.128c-2.978-0.292-5.925-0.757-8.835-1.408c-0.495-0.105-0.968-0.257-1.455-0.375
	c-2.707-0.668-5.393-1.464-8.032-2.432c-0.173-0.06-0.338-0.127-0.51-0.188l21.907-18.255l24.188-4.839L678.8,448.65z
	 M690.718,405.705l-27.338,5.468l-3.825-19.133l-1.273-6.375l22.185-16.635l26.048,15.622L690.718,405.705z M650,373.125
	l-20.49-15.367l10.125-20.258h20.73l10.133,20.258L650,373.125z M618.965,368.603l24.24,18.181l6.066,30.314l-24.975,20.806
	c-0.158-0.099-0.323-0.188-0.473-0.285c-4.59-3.022-8.79-6.519-12.548-10.396c-0.359-0.366-0.689-0.766-1.035-1.141
	c-1.537-1.649-3.007-3.352-4.387-5.13c-0.323-0.412-0.632-0.84-0.945-1.269c-1.396-1.882-2.715-3.816-3.923-5.812
	c-0.188-0.3-0.367-0.601-0.547-0.907c-5.655-9.615-9.182-20.475-10.118-31.837c-0.007-0.083-0.007-0.158-0.016-0.24L618.965,368.603
	z M695.42,443.49l5.775-24.585l28.185-5.633C721.468,426.532,709.625,437.152,695.42,443.49z M733.168,343.905l-18.061,28.41
	L685.73,354.69l-11.61-23.214l23.774-23.774C713.436,315.33,725.945,328.14,733.168,343.905z M619.407,315.585L626.615,330
	l-12.099,24.188l-23.67,10.141C593.69,344.543,604.242,327.247,619.407,315.585z"/>
<path fill="#000FF" d="M589.378,190.342l184.665,126.255c-0.541,1.365-0.953,2.752-1.388,4.141c-0.03,0.104-0.067,0.203-0.099,0.3
	c-0.742,2.415-1.326,4.853-1.731,7.328c-0.062,0.337-0.144,0.675-0.195,1.013c-0.382,2.64-0.63,5.295-0.63,7.987
	c0,0.028,0.008,0.053,0.008,0.082c0,0.016-0.008,0.029-0.008,0.053c0,13.598,5.152,26.857,14.902,38.76
	c-0.314,0.322-0.601,0.668-0.907,0.998c-0.144,0.157-0.308,0.285-0.45,0.442c-0.037,0.045-0.053,0.104-0.09,0.143
	C775.123,387.113,770,399.322,770,412.733c0,13.268,5.01,25.364,13.186,34.59c0.037,0.045,0.045,0.104,0.09,0.149
	c0.173,0.195,0.367,0.354,0.539,0.547c0.932,1.014,1.898,1.988,2.903,2.927c0.322,0.3,0.652,0.6,0.982,0.893
	c1.034,0.922,2.114,1.792,3.225,2.625c0.315,0.232,0.623,0.472,0.938,0.705c1.186,0.854,2.414,1.649,3.668,2.399
	c0.263,0.156,0.523,0.329,0.795,0.479c1.356,0.779,2.76,1.492,4.185,2.152c0.188,0.082,0.367,0.188,0.556,0.27
	c1.522,0.684,3.082,1.283,4.681,1.815c0.112,0.037,0.225,0.09,0.337,0.127c1.628,0.533,3.285,0.981,4.979,1.351
	c0.091,0.022,0.188,0.054,0.277,0.075c1.62,0.345,3.271,0.607,4.937,0.795c0.163,0.022,0.329,0.061,0.493,0.074
	c1.809,0.188,3.639,0.293,5.498,0.293c9.36,0,18.136-2.505,25.747-6.84c0.03-0.017,0.053-0.03,0.083-0.045
	c1.484-0.849,2.925-1.771,4.32-2.76c0.188-0.137,0.367-0.278,0.555-0.413c1.224-0.894,2.407-1.83,3.547-2.82
	c0.271-0.232,0.525-0.479,0.788-0.72c1.051-0.952,2.055-1.936,3.022-2.962c0.12-0.129,0.263-0.24,0.383-0.375
	c0.037-0.047,0.052-0.105,0.09-0.15c7.297-7.98,12.181-18.195,13.41-29.513C882.05,419.355,889.857,420,897.5,420
	c9.045,0,17.857-0.63,26.37-1.8l33.944,21.157C959.93,453.848,972.439,465,987.5,465c16.545,0,30-13.455,30-30s-13.455-30-30-30
	h-5.115l-4.792-3.397c7.282-3.816,13.859-8.151,19.694-12.899c0.338-0.202,0.705-0.322,1.021-0.585
	c9.479-7.912,16.44-16.702,20.91-26.04c0.037-0.074,0.067-0.157,0.104-0.232c1.096-2.31,2.024-4.656,2.806-7.035
	c0.149-0.457,0.3-0.914,0.442-1.38c0.615-2.068,1.108-4.153,1.483-6.262c0.113-0.601,0.248-1.186,0.338-1.785
	c0.367-2.603,0.607-5.228,0.607-7.883s-0.24-5.28-0.615-7.89c-0.09-0.602-0.231-1.192-0.337-1.785
	c-0.375-2.107-0.861-4.192-1.484-6.264c-0.144-0.465-0.293-0.923-0.442-1.38c-0.772-2.378-1.71-4.726-2.806-7.034
	c-0.037-0.075-0.066-0.157-0.104-0.232c-4.47-9.338-11.43-18.127-20.91-26.04c-0.3-0.248-0.651-0.353-0.975-0.547
	c-13.732-11.198-31.83-20.018-52.644-25.403c0.504-0.195,0.99-0.42,1.485-0.622c0.569-0.233,1.132-0.473,1.702-0.713
	c18.45-7.935,34.92-20.197,47.955-36c0.015-0.022,0.029-0.037,0.053-0.06c2.572-3.127,5.055-6.345,7.35-9.742
	c0.099-0.143,0.136-0.3,0.219-0.45c13.598-20.28,21.555-44.64,21.555-70.837c0-3.127-0.195-6.42-0.502-9.87
	c-0.181-2.31-0.428-4.59-0.729-6.862c-0.016-0.098-0.016-0.173-0.029-0.263c-0.008-0.03-0.022-0.06-0.022-0.09
	c-6.45-47.843-39.466-87.263-83.729-102.975c-0.075-0.03-0.135-0.083-0.21-0.112c-0.188-0.068-0.384-0.105-0.57-0.172
	c-2.834-0.983-5.707-1.854-8.625-2.64c-0.907-0.248-1.813-0.473-2.722-0.705c-2.543-0.623-5.102-1.2-7.695-1.672
	c-1.71-0.315-3.42-0.54-5.13-0.788c-1.95-0.27-3.885-0.578-5.857-0.757C905.293,15.225,901.4,15,897.5,15
	c-3.84,0-7.65,0.232-11.43,0.578c-1.269,0.112-2.527,0.27-3.788,0.42c-2.527,0.308-5.032,0.697-7.522,1.155
	c-1.387,0.255-2.781,0.473-4.154,0.765c-3.188,0.698-6.346,1.5-9.449,2.438c-1.905,0.57-3.758,1.245-5.625,1.897
	c-1.44,0.51-2.873,1.02-4.29,1.575c-2.011,0.788-4.005,1.605-5.963,2.498c-1.08,0.487-2.139,1.027-3.202,1.545
	c-3.9,1.882-7.673,3.945-11.325,6.21c-0.78,0.48-1.582,0.93-2.354,1.433c-1.875,1.215-3.683,2.497-5.489,3.81
	c-1.065,0.772-2.115,1.56-3.157,2.363c-1.703,1.312-3.391,2.64-5.025,4.035c-1.058,0.908-2.069,1.875-3.098,2.82
	c-2.64,2.415-5.168,4.928-7.598,7.553c-1.072,1.162-2.16,2.311-3.195,3.51c-1.305,1.515-2.55,3.075-3.779,4.657
	c-0.953,1.223-1.875,2.46-2.783,3.72c-1.198,1.665-2.398,3.323-3.523,5.04c-0.675,1.035-1.29,2.123-1.936,3.18
	c-2.197,3.585-4.207,7.275-6.046,11.077c-0.366,0.765-0.786,1.5-1.146,2.28c-0.022,0.052-0.015,0.12-0.037,0.172
	C774.215,105.825,770,123.66,770,142.5c0,2.917,0.248,5.775,0.436,8.647c0,0.022-0.008,0.053-0.008,0.075
	c0,0.052,0.016,0.097,0.016,0.15c0.276,3.975,0.742,7.882,1.373,11.752c0.037,0.217,0.06,0.435,0.097,0.645
	c0.646,3.795,1.455,7.522,2.423,11.197c0.067,0.27,0.135,0.533,0.21,0.803c0.982,3.63,2.123,7.185,3.412,10.672
	c0.104,0.278,0.203,0.562,0.308,0.84c1.307,3.465,2.762,6.854,4.352,10.17c0.127,0.27,0.263,0.547,0.39,0.817
	c1.62,3.308,3.368,6.525,5.258,9.667c0.144,0.24,0.292,0.48,0.436,0.72c1.245,2.032,2.46,4.08,3.811,6.037
	c0.061,0.098,0.09,0.21,0.157,0.308c1.854,2.67,3.825,5.228,5.85,7.732c0.519,0.63,1.043,1.252,1.567,1.875
	c2.243,2.663,4.561,5.25,6.998,7.703c0.127,0.127,0.247,0.263,0.375,0.39c2.563,2.557,5.25,4.958,8.01,7.282
	c0.638,0.533,1.269,1.065,1.913,1.59c2.722,2.205,5.512,4.312,8.393,6.277c0.593,0.405,1.216,0.772,1.814,1.17
	c2.452,1.612,4.965,3.135,7.521,4.575c0.855,0.48,1.695,0.982,2.565,1.447c2.888,1.538,5.842,2.955,8.851,4.268
	c1.071,0.473,2.159,0.908,3.246,1.35c0.211,0.083,0.413,0.172,0.623,0.255l0,0c-12.449,3.218-23.984,7.62-34.146,13.073
	l-180.93-145.485c-8.349-6.712-18.804-9.607-29.4-8.145c-10.612,1.455-19.89,7.058-26.115,15.78
	c-6.066,8.498-8.407,18.84-6.585,29.123C575.021,175.538,580.768,184.447,589.378,190.342z M843.567,443.228
	c-0.705,0.495-1.462,0.894-2.197,1.327c-1.065,0.646-2.152,1.245-3.277,1.785c-1.186,0.54-2.393,1.027-3.63,1.44
	c-0.54,0.188-1.096,0.345-1.643,0.51c-7.11,2.01-14.828,1.942-21.932-0.255c-0.238-0.075-0.486-0.144-0.72-0.227
	c-1.455-0.486-2.872-1.095-4.26-1.762c-0.795-0.391-1.567-0.816-2.333-1.268c-1.005-0.578-2.01-1.163-2.962-1.847
	c-0.188-0.135-0.347-0.3-0.533-0.441c12.653-9.181,31.223-9.09,43.928,0.375C843.845,442.98,843.725,443.122,843.567,443.228z
	 M821.795,420.465c-11.482,0-22.598,3.9-31.657,10.822c-3.181-5.482-5.138-11.769-5.138-18.555c0-6.894,2.01-13.269,5.28-18.811
	C799.393,401.01,810.635,405,822.268,405c11.617,0,22.846-3.982,31.95-11.048c0.181,0.308,0.382,0.606,0.556,0.931
	c0.435,0.787,0.906,1.545,1.289,2.37c0.615,1.342,1.08,2.767,1.537,4.192c0.271,0.832,0.57,1.656,0.78,2.512
	c0.36,1.485,0.556,3.023,0.729,4.568c0.157,1.401,0.428,2.768,0.428,4.207c0,6.989-2.056,13.47-5.423,19.064
	C844.947,424.553,833.585,420.465,821.795,420.465z M800.585,382.553c1.522-1.096,3.144-1.995,4.777-2.843
	c0.21-0.112,0.413-0.231,0.63-0.345c1.178-0.557,2.385-1.027,3.615-1.455c0.585-0.218,1.178-0.413,1.776-0.602
	c7.208-2.106,15.038-2.092,22.215,0.105c0.15,0.045,0.302,0.09,0.443,0.135c1.454,0.465,2.864,1.072,4.252,1.718
	c0.474,0.226,0.93,0.474,1.396,0.721c0.359,0.194,0.729,0.383,1.08,0.585c0.869,0.486,1.726,0.998,2.551,1.561
	c0.292,0.202,0.562,0.449,0.848,0.667c-12.683,9.255-31.193,9.248-43.859-0.03C800.405,382.71,800.487,382.62,800.585,382.553z
	 M807.74,362.55c-0.062,0.017-0.112,0.045-0.173,0.062c-1.351,0.396-2.662,0.861-3.96,1.363c-0.359,0.137-0.729,0.248-1.08,0.397
	c-0.474,0.195-0.938,0.405-1.402,0.608c-0.008,0-0.015,0.007-0.021,0.007c-1.44,0.646-2.857,1.335-4.229,2.101
	c-7.778-9.293-11.851-19.448-11.873-29.663c0-2.122,0.202-4.223,0.532-6.3c0.091-0.548,0.21-1.072,0.322-1.605
	c0.293-1.477,0.668-2.938,1.117-4.387c0.226-0.721,0.45-1.448,0.713-2.146c0.42-1.141,0.938-2.257,1.447-3.375
	c0.277-0.585,0.519-1.2,0.811-1.771c0.074-0.12,0.201-0.194,0.271-0.322c1.199-2.279,2.692-4.604,4.561-7.109
	c0.09-0.128,0.12-0.277,0.188-0.413c0.72-0.944,1.463-1.837,2.22-2.715c0.713-0.84,1.583-1.717,2.453-2.609c0,0,0,0,0.008,0
	l0.061-0.061c0.502-0.524,1.058-0.982,1.575-1.5C810.268,313.545,815,325.268,815,337.365C815,345.99,812.555,354.45,807.74,362.55z
	 M873.643,403.372c-0.263-1.454-0.6-2.872-0.981-4.282c-0.03-0.112-0.062-0.231-0.09-0.345c-0.368-1.312-0.788-2.604-1.253-3.87
	c-0.082-0.225-0.157-0.45-0.247-0.668c-0.458-1.207-0.96-2.385-1.5-3.547c-0.12-0.255-0.248-0.51-0.368-0.767
	c-0.555-1.132-1.132-2.241-1.764-3.328c-0.142-0.24-0.283-0.474-0.427-0.714c-0.659-1.095-1.335-2.168-2.069-3.201
	c-0.104-0.144-0.219-0.278-0.315-0.429c-1.102-1.529-2.287-2.984-3.547-4.388c-0.037-0.045-0.053-0.104-0.09-0.143
	c-0.144-0.157-0.309-0.292-0.45-0.442c-0.96-1.035-1.95-2.018-2.992-2.97c-0.285-0.264-0.562-0.519-0.854-0.772
	c-1.096-0.968-2.235-1.875-3.412-2.745c-0.21-0.156-0.42-0.33-0.63-0.479c-0.174-0.127-0.347-0.255-0.519-0.375
	c-0.84-0.592-1.718-1.132-2.596-1.672c-0.479-0.302-0.96-0.602-1.455-0.887c-0.817-0.465-1.657-0.898-2.505-1.326
	c-0.6-0.301-1.192-0.594-1.809-0.87c-0.111-0.054-0.225-0.112-0.345-0.165c-0.007,0-0.015-0.007-0.021-0.007
	c-0.684-0.302-1.38-0.578-2.077-0.855c-0.705-0.277-1.41-0.532-2.13-0.78c-0.78-0.27-1.562-0.532-2.355-0.757
	c-0.825-0.24-1.665-0.441-2.505-0.646c-0.72-0.173-1.439-0.354-2.175-0.495c-1.013-0.194-2.04-0.33-3.075-0.474
	c-0.441-0.06-0.878-0.156-1.32-0.201c-0.015,0-0.028-0.009-0.045-0.009c-0.143-0.015-0.292-0.021-0.435-0.037
	c-0.683-0.066-1.373-0.082-2.056-0.119c3.061-7.537,4.771-15.292,4.771-23.242c0-15.705-5.947-30.69-17.22-43.815
	c0.562-0.382,1.058-0.75,1.648-1.147c1.554-1.035,3.105-2.062,4.764-3.03c0.396-0.232,0.734-0.533,1.08-0.825
	C840.447,277.087,867.59,270,897.5,270c33.923,0,64.32,9.098,84.96,23.393C971.03,306.577,965,321.675,965,337.5
	s6.03,30.923,17.46,44.107c-6.276,4.35-13.417,8.228-21.337,11.505c-0.368,0.09-0.743,0.149-1.104,0.293
	c-10.846,4.417-22.838,7.627-35.646,9.547c-0.046,0.008-0.083,0.03-0.128,0.038c-8.595,1.268-17.513,2.01-26.745,2.01
	C889.686,405,881.689,404.452,873.643,403.372z M885.395,254.288c-1.222-0.135-2.414-0.345-3.621-0.518c-0.009,0-0.009,0-0.016,0
	c-2.775-0.397-5.535-0.877-8.258-1.47c-1.207-0.262-2.4-0.555-3.593-0.862c-0.247-0.06-0.495-0.127-0.742-0.195
	c-2.468-0.645-4.905-1.395-7.32-2.205c-0.922-0.308-1.845-0.6-2.76-0.938c-0.6-0.218-1.208-0.428-1.8-0.66
	c-2.692-1.035-5.325-2.19-7.92-3.427c-0.105-0.053-0.219-0.09-0.322-0.143c-0.758-0.36-1.516-0.713-2.266-1.088
	c-1.261-0.646-2.467-1.372-3.697-2.062c-1.74-0.967-3.48-1.927-5.168-2.985c-1.891-1.192-3.721-2.475-5.535-3.772
	c-1.199-0.855-2.377-1.725-3.547-2.632c-1.912-1.485-3.803-3-5.617-4.605c-0.818-0.72-1.598-1.5-2.393-2.25
	c-1.83-1.718-3.66-3.435-5.37-5.265c-0.03-0.038-0.062-0.067-0.099-0.105c-2.228-2.393-4.351-4.882-6.367-7.455
	c-0.037-0.045-0.082-0.09-0.119-0.135c-0.48-0.615-0.894-1.29-1.365-1.92c1.237-2.7,2.617-5.34,4.133-7.868
	c5.311-8.91,11.925-19.987,23.91-24.525c16.027-6.09,32.917,3.45,52.447,14.505c7.973,4.515,16.223,9.18,24.93,13.035
	c20.235,8.955,42.938,13.417,67.845,13.14c-0.81,0.893-1.597,1.808-2.438,2.678c-0.938,0.967-1.891,1.913-2.851,2.85
	c-1.718,1.657-3.473,3.262-5.295,4.807c-1.026,0.87-2.085,1.71-3.143,2.542c-1.83,1.448-3.69,2.865-5.61,4.2
	c-1.215,0.84-2.46,1.612-3.705,2.4c-1.853,1.185-3.712,2.355-5.64,3.435c-1.5,0.833-3.045,1.575-4.583,2.34
	c-1.762,0.878-3.517,1.785-5.332,2.573c-1.89,0.817-3.832,1.507-5.769,2.22c-1.566,0.585-3.111,1.215-4.718,1.732
	c-2.323,0.742-4.702,1.32-7.079,1.905c-1.312,0.33-2.596,0.735-3.923,1.013c-2.774,0.585-5.603,0.975-8.438,1.35
	c-1.005,0.135-1.987,0.352-3.008,0.457c-3.87,0.398-7.785,0.615-11.737,0.615C893.428,255,889.393,254.723,885.395,254.288z
	 M1007.12,322.537c0.405,1.035,0.728,2.115,1.058,3.195c0.322,1.095,0.607,2.189,0.84,3.3c0.165,0.771,0.346,1.538,0.466,2.333
	c0.308,2.023,0.518,4.063,0.518,6.135s-0.21,4.11-0.518,6.135c-0.12,0.795-0.3,1.562-0.466,2.333c-0.231,1.109-0.518,2.205-0.84,3.3
	c-0.33,1.08-0.651,2.16-1.058,3.195c-0.099,0.255-0.226,0.494-0.322,0.75c-3.061,7.425-7.928,13.71-12.938,18.697
	C984.77,361.44,980,349.657,980,337.5s4.77-23.94,13.86-34.402c5.01,4.979,9.877,11.266,12.938,18.697
	C1006.895,322.043,1007.021,322.29,1007.12,322.537z M961.812,408.81l13.853,9.812c1.269,0.898,2.782,1.38,4.335,1.38h7.5
	c8.271,0,15,6.728,15,15s-6.729,15-15,15s-15-6.728-15-15c0-2.588-1.335-4.995-3.532-6.367l-23.534-14.67
	c0.314-0.083,0.6-0.203,0.906-0.285c4.485-1.208,8.82-2.588,13.027-4.103C960.162,409.298,961.025,409.103,961.812,408.81z
	 M992.593,202.342c-27.413,1.92-52.186-1.837-73.598-11.317c-8.04-3.562-15.952-8.04-23.617-12.375
	c-20.896-11.82-42.503-24.067-65.153-15.472c-16.875,6.39-25.656,21.112-31.477,30.862c-0.195,0.322-0.354,0.675-0.548,1.005
	c-6.442-12.135-10.763-25.59-12.368-39.885c32.708-15.855,67.448-26.093,103.328-30.465c40.327-4.905,80.768-2.287,120.292,7.763
	c0.038,0.375,0.053,0.712,0.083,1.08c0.247,2.97,0.465,5.94,0.465,8.962C1010,164.505,1003.558,184.987,992.593,202.342z
	 M1006.835,116.46c-39.322-9.225-79.447-11.527-119.468-6.652c-35.399,4.305-69.705,14.123-102.18,29.13
	c0.411-13.178,3.082-25.777,7.673-37.447c7.034,1.545,13.882,2.34,20.512,2.34c7.493,0,14.708-0.99,21.593-2.97
	c14.521-4.17,23.61-11.542,35.123-20.865c6.172-5.002,13.177-10.673,22.455-17.1c14.084-9.75,29.257-18.248,45.082-25.373
	C971.952,50.692,998.18,80.16,1006.835,116.46z M803.36,81.09c0.981-1.507,2.04-2.955,3.097-4.402
	c0.758-1.042,1.523-2.078,2.311-3.09c1.08-1.388,2.168-2.768,3.309-4.103c0.906-1.058,1.859-2.062,2.805-3.09
	c1.973-2.146,4.021-4.208,6.15-6.18c0.885-0.825,1.77-1.643,2.685-2.445c1.396-1.215,2.806-2.408,4.26-3.555
	c0.804-0.63,1.637-1.223,2.453-1.837c2.707-2.018,5.497-3.915,8.37-5.685c0.854-0.525,1.694-1.058,2.564-1.56
	c1.665-0.968,3.359-1.89,5.069-2.768c0.96-0.487,1.936-0.938,2.91-1.402c2.745-1.305,5.542-2.498,8.386-3.585
	c1.343-0.51,2.678-1.028,4.041-1.485c1.517-0.51,3.054-0.99,4.599-1.432c1.979-0.57,3.976-1.08,6-1.545
	c1.373-0.315,2.753-0.63,4.141-0.892c2.64-0.502,5.304-0.915,8.002-1.223c0.982-0.113,1.974-0.217,2.963-0.3
	c3.314-0.292,6.646-0.51,10.027-0.51c3.42,0,6.787,0.21,10.125,0.51c1.657,0.158,3.308,0.39,4.957,0.623
	c0.961,0.127,1.913,0.285,2.865,0.435C904.543,37.275,894.02,43.627,884,50.565c-9.742,6.743-16.98,12.607-23.362,17.775
	c-10.979,8.895-18.231,14.775-29.827,18.105c-9.75,2.798-20.078,3.18-31.373,1.103c1.2-2.13,2.469-4.215,3.787-6.248
	C803.277,81.232,803.314,81.157,803.36,81.09z M592.003,144.862c3.802-5.325,9.472-8.752,15.952-9.637
	c1.095-0.158,2.189-0.225,3.277-0.225c5.324,0,10.446,1.792,14.686,5.197L802.64,282.27c-1.536,1.095-3.015,2.22-4.446,3.375
	c-0.054,0.038-0.104,0.075-0.157,0.12l-0.022,0.015l0,0l-0.811,0.675c-0.157,0.112-0.354,0.157-0.502,0.285
	c-3.698,3.082-6.945,6.33-9.893,9.66c-0.144,0.158-0.309,0.315-0.45,0.48c-1.605,1.253-2.857,2.888-3.87,4.86
	c-0.405,0.54-0.84,1.071-1.224,1.62L597.854,177.967c-5.259-3.6-8.761-9.037-9.87-15.315
	C586.865,156.368,588.298,150.053,592.003,144.862z"/>
<path fill="#000FF" d="M920,323.97v13.53h15v-10.815c4.013,0.863,8.295,1.847,13.155,3.083l3.688-14.534
	c-6.263-1.591-11.805-2.857-16.853-3.877V292.5h-15v16.35c-5.354-0.682-10.224-1.033-15-1.207V292.5h-15v15.135
	c-5.521,0.182-10.47,0.557-15,1.08V292.5h-15v18.683c-5.024,1.059-9.765,2.242-14.55,3.466l-2.295,0.585l3.689,14.534l2.311-0.585
	c3.675-0.938,7.223-1.838,10.845-2.663v10.98h15v-13.665c4.508-0.577,9.405-1.005,15-1.2V337.5h15v-14.85
	C909.763,322.83,914.593,323.22,920,323.97z"/>
</svg>
